# xmcd
#
# Track frame offsets:
#	183
#	15233
#	35620
#	53798
#	69863
#	92008
#	113463
#	131025
#	141968
#	176843
#	196633
#	216990
#	251445
#	269690
#	292405
#
# Disc length: 4586 seconds
# Revision: 2
# Processed by: cddbd v1.5.2PL0 Copyright (c) Steve Scherf et al.
# Submitted via: dBpowerAMP V12.0
#
DISCID=de11e80f
DTITLE=John Lee Hooker and Canned Heat - Hooker 'n' Heat - The Best Of... PLus
DYEAR=1989
DGENRE=
TTITLE0=Messin' With the Hook
TTITLE1=The Feelin' Is Gone
TTITLE2=Send Me Your Pillow
TTITLE3=Meet Me in the Bottom
TTITLE4=Drifter
TTITLE5=You Talk Too Much
TTITLE6=Burning Hell
TTITLE7=Bottle Up and Go
TTITLE8=The World Today
TTITLE9=I Got My Eyes on You
TTITLE10=Whiskey and Wimmen
TTITLE11=Just You and Me
TTITLE12=Let's Make It
TTITLE13=Peavine
TTITLE14=Boogie Chillen No. 2
EXTD=
EXTT0=
EXTT1=
EXTT2=
EXTT3=
EXTT4=
EXTT5=
EXTT6=
EXTT7=
EXTT8=
EXTT9=
EXTT10=
EXTT11=
EXTT12=
EXTT13=
EXTT14=
PLAYORDER=
